<svg width="186" height="173" viewBox="0 0 186 173" fill="none" xmlns="http://www.w3.org/2000/svg">
    <g opacity="0.02">
        <ellipse cx="33.1917" cy="33.3514" rx="33.1917" ry="33.3514" transform="matrix(0.949651 0.313311 -0.309957 0.95075 102.707 15.625)" fill="#24292F"/>
        <path d="M210.938 92.8958C210.938 100.161 207.439 106.982 201.539 111.222L181.261 125.793C169.092 131.285 157.348 135.296 148.217 136.823C145.664 137.25 143.94 139.667 144.367 142.22C144.794 144.773 147.21 146.497 149.764 146.07C153.093 145.513 156.684 144.673 160.459 143.592C161.521 144.884 162.468 146.305 163.276 147.846L188.75 196.456C195.107 208.586 190.452 223.62 178.354 230.036C166.256 236.452 151.295 231.821 144.939 219.691L141.26 212.671C137.564 203.412 135.515 194.062 135.917 185.717C136.042 183.132 134.047 180.934 131.461 180.809C128.876 180.684 126.678 182.679 126.553 185.265C126.116 194.318 128.054 203.973 131.485 213.353L131.018 214.929C126.75 229.351 111.609 237.544 97.2002 233.228C82.7919 228.913 74.5721 213.722 78.841 199.3L93.0569 151.271C93.1155 151.073 93.1762 150.876 93.2389 150.68C97.5942 151.984 101.703 152.765 105.365 152.823C107.954 152.865 110.085 150.799 110.126 148.211C110.168 145.622 108.102 143.491 105.514 143.45C103.318 143.415 100.7 142.995 97.7248 142.207L97.9194 141.962C89.8236 139.275 82.0391 135.35 74.8528 130.186L48.4606 111.222C42.5605 106.982 39.0625 100.161 39.0625 92.8957C39.0625 74.5118 59.8675 63.8423 74.7969 74.5699L101.859 94.0158C115.687 103.951 134.313 103.951 148.141 94.0158L175.203 74.5699C190.133 63.8423 210.938 74.5119 210.938 92.8958Z" fill="#1C4A47"/>
    </g>
</svg>
