<svg width="121" height="19" viewBox="0 0 121 19" fill="none" xmlns="http://www.w3.org/2000/svg">
    <path d="M32.3079 15.5564L27.9551 10.3393L31.7451 5.83286H28.2365L25.1408 9.75967L23.7524 11.5548H23.6773L23.7336 9.72227V3.79039C23.7336 2.95624 23.0574 2.28003 22.2232 2.28003C21.3891 2.28003 20.7129 2.95624 20.7129 3.79039V15.5564H23.5647L26.1915 12.4336L28.7619 15.5564H32.3079Z" fill="#FFF9D4"/>
    <path d="M37.2436 5.55237C34.2791 5.55237 32.3654 6.31903 32.4592 8.84341H35.1422C35.2735 8.05805 35.8364 7.79626 37.1122 7.79626C38.5006 7.79626 39.0823 8.11415 39.0823 9.0491V9.79706H35.6863C33.1346 9.79706 31.9526 10.7694 31.9526 12.7328C31.9526 14.8084 33.266 15.8369 35.3861 15.8369C36.9997 15.8369 38.8008 15.2385 39.6264 13.8548L39.2886 14.5466L39.5513 15.5564H42.103V8.73122C42.103 6.63692 40.6208 5.55237 37.2436 5.55237ZM36.4743 13.5743C35.4236 13.5743 35.0296 13.1816 35.0296 12.5832C35.0296 11.9662 35.4236 11.6296 36.1741 11.6296H39.0823V12.7702C38.4443 13.2938 37.5625 13.5743 36.6056 13.5743H36.4743Z" fill="#FFF9D4"/>
    <path d="M49.6816 5.57107C48.1806 5.57107 46.9235 6.16944 45.9291 7.87106L46.4732 6.84261L46.417 5.83286H43.4525V18.81H46.4732V14.3596C47.2613 15.4255 48.4058 15.8369 49.6816 15.8369C52.6085 15.8369 54.4847 13.5556 54.4847 10.6946C54.4847 7.85236 52.6085 5.57107 49.6816 5.57107ZM48.9686 13.2003C47.4114 13.2003 46.4357 12.1532 46.4357 10.6946C46.4357 9.23609 47.4114 8.18894 48.9686 8.18894C50.5259 8.18894 51.4828 9.23609 51.4828 10.6946C51.4828 12.1532 50.5259 13.2003 48.9686 13.2003Z" fill="#FFF9D4"/>
    <path d="M61.5736 5.57107C60.0726 5.57107 58.8156 6.16944 57.8212 7.87106L58.3653 6.84261L58.309 5.83286H55.3445V18.81H58.3653V14.3596C59.1533 15.4255 60.2978 15.8369 61.5736 15.8369C64.5005 15.8369 66.3767 13.5556 66.3767 10.6946C66.3767 7.85236 64.5005 5.57107 61.5736 5.57107ZM60.8606 13.2003C59.3034 13.2003 58.3277 12.1532 58.3277 10.6946C58.3277 9.23609 59.3034 8.18894 60.8606 8.18894C62.4179 8.18894 63.3748 9.23609 63.3748 10.6946C63.3748 12.1532 62.4179 13.2003 60.8606 13.2003Z" fill="#FFF9D4"/>
    <path d="M74.4461 8.39463V5.83286H71.7256V2.46702H68.7048V5.83286H66.5472V8.39463H68.7048V12.1158C68.7048 14.3222 69.7555 15.6499 72.5699 15.6499H74.4461V12.9572H73.1327C72.1946 12.9572 71.7256 12.6206 71.7256 11.6296V8.39463H74.4461Z" fill="#FFF9D4"/>
    <path d="M75.4462 15.5564H78.4669V5.83286C77.5178 6.31535 76.3953 6.31535 75.4462 5.83286V15.5564Z" fill="#FFF9D4"/>
    <path d="M83.1277 15.5564H86.3548L90.52 5.83286H87.3867L84.7975 12.1905H84.685L82.1145 5.83286H78.9813L83.1277 15.5564Z" fill="#FFF9D4"/>
    <path d="M95.2569 5.55237C92.2924 5.55237 90.3787 6.31903 90.4725 8.84341H93.1555C93.2868 8.05805 93.8497 7.79626 95.1255 7.79626C96.5139 7.79626 97.0956 8.11415 97.0956 9.0491V9.79706H93.6996C91.148 9.79706 89.9659 10.7694 89.9659 12.7328C89.9659 14.8084 91.2793 15.8369 93.3994 15.8369C95.013 15.8369 96.8141 15.2385 97.6397 13.8548L97.302 14.5466L97.5646 15.5564H100.116V8.73122C100.116 6.63692 98.6341 5.55237 95.2569 5.55237ZM94.4876 13.5743C93.437 13.5743 93.0429 13.1816 93.0429 12.5832C93.0429 11.9662 93.437 11.6296 94.1874 11.6296H97.0956V12.7702C96.4577 13.2938 95.5758 13.5743 94.619 13.5743H94.4876Z" fill="#FFF9D4"/>
    <path d="M108.474 8.39463V5.83286H105.753V2.46702H102.733V5.83286H100.575V8.39463H102.733V12.1158C102.733 14.3222 103.783 15.6499 106.598 15.6499H108.474V12.9572H107.16C106.222 12.9572 105.753 12.6206 105.753 11.6296V8.39463H108.474Z" fill="#FFF9D4"/>
    <path d="M111.934 11.5922H119.551C119.852 7.79626 117.75 5.55237 114.298 5.55237C110.827 5.55237 108.895 7.79626 108.895 10.6946C108.895 13.593 110.977 15.8369 114.467 15.8369C116.449 15.8369 118.042 15.1106 118.975 14.1405C119.642 13.4483 118.967 12.5458 118.006 12.5458C117.385 12.5458 116.803 12.9586 116.239 13.2193C115.777 13.4333 115.182 13.5369 114.636 13.5369C113.135 13.5369 112.178 12.8076 111.934 11.5922ZM114.298 7.75886C115.555 7.75886 116.306 8.31984 116.587 9.77837H111.915C112.14 8.45073 112.91 7.75886 114.298 7.75886Z" fill="#FFF9D4"/>
    <path d="M2.99513 10.5716C3.3549 11.5529 3.94976 11.9343 4.81419 12.1821L4.98289 11.9224C5.16693 11.63 5.23695 11.2252 5.25657 10.8568C5.26455 10.6551 5.29663 10.4447 5.52968 10.3605C5.76274 10.2763 5.99366 10.4097 6.07264 10.6251C6.09896 10.6969 6.12969 10.8304 6.12023 10.9784C6.10206 11.3011 6.00873 11.9402 5.69396 12.3973L5.19733 13.1278C4.66419 13.9078 4.43129 14.4888 4.66528 15.1271C5.09233 16.2919 6.17383 16.7594 7.14621 16.408C7.55606 16.2599 8.10684 15.826 8.42815 15.213L9.26938 13.6351C9.4702 13.2644 9.55257 12.6203 9.54297 12.2714C9.53706 12.0567 9.61081 11.8855 9.81975 11.81C10.0448 11.7287 10.2888 11.8483 10.3737 12.0796C10.4058 12.1674 10.4037 12.2856 10.4015 12.4039C10.3994 12.6215 10.4142 13.2576 9.99652 14.1042C11.5142 14.6942 12.0118 14.6861 12.6467 14.4567C13.5548 14.1286 14.1704 13.0026 13.7872 11.9575C13.6 11.4469 13.2697 11.1416 12.6368 10.8553L11.5575 10.3689C11.1191 10.166 10.6894 9.88754 10.286 9.58156C10.1866 9.50906 10.1201 9.45177 10.0733 9.32413C9.9943 9.10872 10.1148 8.86642 10.3237 8.79092C10.4764 8.73575 10.6153 8.7669 10.7395 8.85753C11.2701 9.26212 11.7984 9.5862 12.1981 9.75799L13.4679 9.2992C14.7376 8.8404 15.3203 7.69926 14.8669 6.46266C14.4106 5.2181 13.2254 4.71578 11.9557 5.17457L4.45782 7.88377C3.18809 8.34257 2.59734 9.48662 2.99513 10.5716Z" fill="#FFF9D4"/>
    <ellipse cx="6.45281" cy="3.58345" rx="2.32048" ry="2.30366" fill="#FFF9D4"/>
    <ellipse cx="76.9331" cy="3.08748" rx="2.2488" ry="2.2325" fill="#ED7846"/>
</svg>
