<svg width="12" height="12" viewBox="0 0 12 12" fill="none" xmlns="http://www.w3.org/2000/svg">
    <path d="M7 9.50006C7 8.70441 6.68393 7.94135 6.12132 7.37874C5.55871 6.81613 4.79565 6.50006 4 6.50006C3.20435 6.50006 2.44129 6.81613 1.87868 7.37874C1.31607 7.94135 1 8.70441 1 9.50006" stroke="#24292F" stroke-width="1.25" stroke-linecap="round" stroke-linejoin="round"/>
    <path d="M4 6.49994C5.10457 6.49994 6 5.60451 6 4.49994C6 3.39537 5.10457 2.49994 4 2.49994C2.89543 2.49994 2 3.39537 2 4.49994C2 5.60451 2.89543 6.49994 4 6.49994Z" stroke="#24292F" stroke-width="1.25" stroke-linecap="round" stroke-linejoin="round"/>
    <path d="M11 9.49994C11 8.70429 10.6839 7.94123 10.1213 7.37862C9.55871 6.81601 8.79565 6.49994 8 6.49994C8.53043 6.49994 9.03914 6.28923 9.41421 5.91415C9.78929 5.53908 10 5.03037 10 4.49994C10 3.96951 9.78929 3.4608 9.41421 3.08573C9.03914 2.71065 8.53043 2.49994 8 2.49994" stroke="#24292F" stroke-width="1.25" stroke-linecap="round" stroke-linejoin="round"/>
</svg>
