<svg width="16" height="17" viewBox="0 0 16 17" fill="none" xmlns="http://www.w3.org/2000/svg">
    <path d="M9.33334 13.1665C9.33334 12.1056 8.91192 11.0882 8.16177 10.3381C7.41163 9.58793 6.39421 9.1665 5.33334 9.1665C4.27248 9.1665 3.25506 9.58793 2.50492 10.3381C1.75477 11.0882 1.33334 12.1056 1.33334 13.1665" stroke="#667085" stroke-width="1.25" stroke-linecap="round" stroke-linejoin="round"/>
    <path d="M5.33332 9.16683C6.80608 9.16683 7.99999 7.97292 7.99999 6.50016C7.99999 5.0274 6.80608 3.8335 5.33332 3.8335C3.86056 3.8335 2.66666 5.0274 2.66666 6.50016C2.66666 7.97292 3.86056 9.16683 5.33332 9.16683Z" stroke="#667085" stroke-width="1.25" stroke-linecap="round" stroke-linejoin="round"/>
    <path d="M11.3333 5.8335L14.6667 9.16683" stroke="#667085" stroke-width="1.25" stroke-linecap="round" stroke-linejoin="round"/>
    <path d="M14.6667 5.8335L11.3333 9.16683" stroke="#667085" stroke-width="1.25" stroke-linecap="round" stroke-linejoin="round"/>
</svg>
